# xmcd CD database file
# Copyright (C) 1993-1998 Ti Kan
#
# Track frame offsets:
#  150
#  22640
#  38395
#  53557
#  72040
#  102225
#  119210
#  131307
#  142837
#  154550
#
# Disc length: 2320 seconds
#
# Revision: 1
# Processed by: cddbd v1.4b41PL1 Copyright (c) Steve Scherf et al.
# Submitted via: CDWizzard Release:4.35
#
DISCID=6f090e0a
DTITLE=Tommy Ray O'Dell - Never Been So High
DYEAR=1900
DGENRE=
TTITLE0=Why?
TTITLE1=Streets Of Glory
TTITLE2=Sail Away
TTITLE3=I Get High
TTITLE4=Seventeen
TTITLE5=Why Don't They Cry?
TTITLE6=Loyalty
TTITLE7=On The Road
TTITLE8=Green And Dying
TTITLE9=I Shall Not Be Moved
EXTD=Tommy Ray and The Crimson Groove (Scott Brimhall, Chris McDonal, Willi
EXTD=e Barnes, Stacy Thompson, Bruce Wood
EXTT0=
EXTT1=
EXTT2=
EXTT3=
EXTT4=
EXTT5=
EXTT6=
EXTT7=
EXTT8=
EXTT9=
PLAYORDER=
